<?xml version="1.0" encoding="utf-8"?>
<!-- Generator: Adobe Illustrator 16.0.0, SVG Export Plug-In . SVG Version: 6.00 Build 0)  -->
<!DOCTYPE svg PUBLIC "-//W3C//DTD SVG 1.1//EN" "http://www.w3.org/Graphics/SVG/1.1/DTD/svg11.dtd">
<svg version="1.1" id="Layer_1" xmlns="http://www.w3.org/2000/svg" xmlns:xlink="http://www.w3.org/1999/xlink" x="0px" y="0px"
	 width="413.426px" height="413.423px" viewBox="0 0 413.426 413.423" enable-background="new 0 0 413.426 413.423"
	 xml:space="preserve">
<g>
	
		<path fill-rule="evenodd" clip-rule="evenodd" fill="#ED1C24" stroke="#000000" stroke-width="0.9998" stroke-linejoin="round" stroke-miterlimit="22.9256" d="
		M413.426,121.089l-0.062,0.559c-6.785,61.473-6.785,109.065,0.057,170.612l0.005,0.081l-205.823-85.255l-0.26-0.111l-0.262-0.112
		l-0.368-0.152L413.426,121.089L413.426,121.089z"/>
	
		<path fill-rule="evenodd" clip-rule="evenodd" fill="#FFFFFF" stroke="#000000" stroke-width="0.9998" stroke-linejoin="round" stroke-miterlimit="22.9256" d="
		M206.713,206.71L0,292.341l0.063,0.041c48.499,38.805,82.205,72.547,121.025,121.041l85.472-206.337L206.713,206.71L206.713,206.71
		z"/>
	
		<path fill-rule="evenodd" clip-rule="evenodd" fill="#ED1C24" stroke="#000000" stroke-width="0.9998" stroke-linejoin="round" stroke-miterlimit="22.9256" d="
		M206.713,206.71l-0.152,0.376l-85.472,206.337l0.191-0.021c61.674-6.842,109.35-6.821,171.059,0.021l-85.258-205.818l-0.262-0.63
		L206.713,206.71L206.713,206.71z"/>
	
		<path fill-rule="evenodd" clip-rule="evenodd" fill="#FFFFFF" stroke="#000000" stroke-width="0.9998" stroke-linejoin="round" stroke-miterlimit="22.9256" d="
		M292.339-0.002L206.713,206.71l206.713-85.621C365.247,82.554,331.668,49.015,293.188,1.06L292.339-0.002L292.339-0.002
		L292.339-0.002z"/>
	
		<path fill-rule="evenodd" clip-rule="evenodd" fill="#FFFFFF" stroke="#000000" stroke-width="0.9998" stroke-linejoin="round" stroke-miterlimit="22.9256" d="
		M206.713,206.71L0,292.341L206.713,206.71L121.089,0C82.386,48.387,48.728,82.048,0.439,120.736L0,121.089l0,0L206.713,206.71
		L206.713,206.71z"/>
	
		<path fill-rule="evenodd" clip-rule="evenodd" fill="#ED1C24" stroke="#000000" stroke-width="0.9998" stroke-linejoin="round" stroke-miterlimit="22.9256" d="
		M206.713,206.71L0,292.341v-0.01c6.85-61.771,6.87-109.474,0-171.242L206.713,206.71L206.713,206.71z"/>
	
		<path fill-rule="evenodd" clip-rule="evenodd" fill="#FFFFFF" stroke="#000000" stroke-width="0.9998" stroke-linejoin="round" stroke-miterlimit="22.9256" d="
		M413.426,292.341c-48.474,38.795-82.2,72.486-120.97,120.939l-0.117,0.143L206.713,206.71L413.426,292.341L413.426,292.341z"/>
	
		<polygon fill-rule="evenodd" clip-rule="evenodd" fill="#ED1C24" stroke="#000000" stroke-width="0.9998" stroke-linejoin="round" stroke-miterlimit="22.9256" points="
		206.713,206.71 206.561,207.086 121.089,413.423 206.561,207.086 206.713,206.71 	"/>
	<path fill="none" stroke="#000000" stroke-width="0.9998" stroke-linejoin="round" stroke-miterlimit="22.9256" d="
		M413.426,292.341l-205.823-85.255l-0.26-0.111l-0.262-0.112l-0.368-0.152L0,292.341 M206.713,206.71L121.089,0l0.003-0.002"/>
	
		<path fill-rule="evenodd" clip-rule="evenodd" fill="#ED1C24" stroke="#000000" stroke-width="0.9998" stroke-linejoin="round" stroke-miterlimit="22.9256" d="
		M121.092-0.002l1.352,0.15c61.115,6.7,108.583,6.669,169.895-0.15L206.713,206.71L121.092-0.002L121.092-0.002z"/>
</g>
</svg>
